# xmcd CD database file
#
# Track frame offsets:
#	150
#	15449
#	30326
#	45390
#	61014
#	76529
#	92231
#	109572
#	127035
#	141478
#	156778
#	180121
#
# Disc length: 2982 seconds
#
# Revision: 0
# Processed by: cddbd v1.5.2PL0 Copyright (c) Steve Scherf et al.
# Submitted via: CDex 1.51
#
DISCID=800ba40c
DTITLE=John D Hale Band - One of A Kind
DYEAR=2005
DGENRE=Country
TTITLE0=I'm Gonna Leave You
TTITLE1=Who Knows What Tomorrow Brings
TTITLE2=Back to Texas
TTITLE3=Why
TTITLE4=Jedd Black
TTITLE5=Tired Of Being Me
TTITLE6=Face Down Dead
TTITLE7=The Ballad Of White Trash Charlie
TTITLE8=One Of A Kind
TTITLE9=Lake Elizabeth
TTITLE10=Rebel Soldier.mp3
TTITLE11=Rose In Paradise and OutLaw Groove
EXTD=YEAR: 2005
EXTT0=
EXTT1=
EXTT2=
EXTT3=
EXTT4=
EXTT5=
EXTT6=
EXTT7=
EXTT8=
EXTT9=
EXTT10=
EXTT11=
PLAYORDER=
